HIERARCHY
ROOT Hips
{
    OFFSET 0.000000 0.000000 0.000000
    CHANNELS 6 Xposition Yposition Zposition Zrotation Xrotation Yrotation
    JOINT Spine
    {
        OFFSET -0.000002 7.483729 0.000023
        CHANNELS 3 Zrotation Xrotation Yrotation
        JOINT Spine1
        {
            OFFSET -0.000001 20.538181 0.000012
            CHANNELS 3 Zrotation Xrotation Yrotation
            JOINT Neck
            {
                OFFSET -0.000001 22.426348 0.000008
                CHANNELS 3 Zrotation Xrotation Yrotation
                JOINT Head
                {
                    OFFSET -0.000001 14.412777 1.902208
                    CHANNELS 3 Zrotation Xrotation Yrotation
                    End Site
                    {
                        OFFSET 0.000000 19.022141 0.000000
                    }
                }
            }
            JOINT LeftShoulder
            {
                OFFSET 3.797833 16.121204 -0.677310
                CHANNELS 3 Zrotation Xrotation Yrotation
                JOINT LeftArm
                {
                    OFFSET 11.576587 -0.000001 -0.000008
                    CHANNELS 3 Zrotation Xrotation Yrotation
                    JOINT LeftForeArm
                    {
                        OFFSET 29.906391 -0.000003 -0.000009
                        CHANNELS 3 Zrotation Xrotation Yrotation
                        JOINT LeftHand
                        {
                            OFFSET 24.318314 0.000003 -0.000010
                            CHANNELS 3 Zrotation Xrotation Yrotation
                            JOINT LeftHandThumb1
                            {
                                OFFSET 1.987810 -2.258878 3.162430
                                CHANNELS 3 Zrotation Xrotation Yrotation
                                JOINT LeftHandThumb2
                                {
                                    OFFSET 3.002292 -0.000003 -0.000003
                                    CHANNELS 3 Zrotation Xrotation Yrotation
                                    JOINT LeftHandThumb3
                                    {
                                        OFFSET 2.566088 0.000021 0.000011
                                        CHANNELS 3 Zrotation Xrotation Yrotation
                                        End Site
                                        {
                                            OFFSET 2.440626 0.000000 0.000000
                                        }
                                    }
                                }
                            }
                            JOINT LeftHandIndex1
                            {
                                OFFSET 8.131960 -0.000004 3.162409
                                CHANNELS 3 Zrotation Xrotation Yrotation
                                JOINT LeftHandIndex2
                                {
                                    OFFSET 4.517760 0.000007 0.000014
                                    CHANNELS 3 Zrotation Xrotation Yrotation
                                    JOINT LeftHandIndex3
                                    {
                                        OFFSET 2.258877 0.000003 0.000007
                                        CHANNELS 3 Zrotation Xrotation Yrotation
                                        End Site
                                        {
                                            OFFSET 2.148437 0.000000 0.000000
                                        }
                                    }
                                }
                            }
                            JOINT LeftHandMiddle1
                            {
                                OFFSET 8.131962 -0.000003 1.048103
                                CHANNELS 3 Zrotation Xrotation Yrotation
                                JOINT LeftHandMiddle2
                                {
                                    OFFSET 4.969532 -0.000002 -0.000011
                                    CHANNELS 3 Zrotation Xrotation Yrotation
                                    JOINT LeftHandMiddle3
                                    {
                                        OFFSET 2.710654 -0.000004 -0.000019
                                        CHANNELS 3 Zrotation Xrotation Yrotation
                                        End Site
                                        {
                                            OFFSET 2.578118 0.000000 0.000000
                                        }
                                    }
                                }
                            }
                            JOINT LeftHandRing1
                            {
                                OFFSET 7.680186 -0.000004 -1.048142
                                CHANNELS 3 Zrotation Xrotation Yrotation
                                JOINT LeftHandRing2
                                {
                                    OFFSET 4.517759 0.000003 0.000015
                                    CHANNELS 3 Zrotation Xrotation Yrotation
                                    JOINT LeftHandRing3
                                    {
                                        OFFSET 2.258877 0.000001 0.000008
                                        CHANNELS 3 Zrotation Xrotation Yrotation
                                        End Site
                                        {
                                            OFFSET 2.148437 0.000000 0.000000
                                        }
                                    }
                                }
                            }
                            JOINT LeftHandPinky1
                            {
                                OFFSET 7.228410 0.000002 -3.162422
                                CHANNELS 3 Zrotation Xrotation Yrotation
                                JOINT LeftHandPinky2
                                {
                                    OFFSET 3.614206 0.000000 0.000022
                                    CHANNELS 3 Zrotation Xrotation Yrotation
                                    JOINT LeftHandPinky3
                                    {
                                        OFFSET 1.807101 -0.000001 -0.000013
                                        CHANNELS 3 Zrotation Xrotation Yrotation
                                        End Site
                                        {
                                            OFFSET 1.718745 0.000000 0.000000
                                        }
                                    }
                                }
                            }
                        }
                    }
                }
            }
            JOINT RightShoulder
            {
                OFFSET -3.797833 16.121193 -0.677283
                CHANNELS 3 Zrotation Xrotation Yrotation
                JOINT RightArm
                {
                    OFFSET -11.576583 0.000005 0.000008
                    CHANNELS 3 Zrotation Xrotation Yrotation
                    JOINT RightForeArm
                    {
                        OFFSET -29.906401 0.000003 0.000009
                        CHANNELS 3 Zrotation Xrotation Yrotation
                        JOINT RightHand
                        {
                            OFFSET -24.318304 -0.000010 0.000009
                            CHANNELS 3 Zrotation Xrotation Yrotation
                            JOINT RightHandThumb1
                            {
                                OFFSET -1.987830 -2.258883 3.162432
                                CHANNELS 3 Zrotation Xrotation Yrotation
                                JOINT RightHandThumb2
                                {
                                    OFFSET -3.002275 0.000013 -0.000003
                                    CHANNELS 3 Zrotation Xrotation Yrotation
                                    JOINT RightHandThumb3
                                    {
                                        OFFSET -2.566105 -0.000001 0.000004
                                        CHANNELS 3 Zrotation Xrotation Yrotation
                                        End Site
                                        {
                                            OFFSET -2.440626 0.000000 0.000000
                                        }
                                    }
                                }
                            }
                            JOINT RightHandIndex1
                            {
                                OFFSET -8.131939 0.000001 3.162429
                                CHANNELS 3 Zrotation Xrotation Yrotation
                                JOINT RightHandIndex2
                                {
                                    OFFSET -4.517749 0.000001 0.000001
                                    CHANNELS 3 Zrotation Xrotation Yrotation
                                    JOINT RightHandIndex3
                                    {
                                        OFFSET -2.258898 -0.000001 0.000003
                                        CHANNELS 3 Zrotation Xrotation Yrotation
                                        End Site
                                        {
                                            OFFSET -2.148437 0.000000 0.000000
                                        }
                                    }
                                }
                            }
                            JOINT RightHandMiddle1
                            {
                                OFFSET -8.131984 -0.000008 1.048120
                                CHANNELS 3 Zrotation Xrotation Yrotation
                                JOINT RightHandMiddle2
                                {
                                    OFFSET -4.969529 0.000001 0.000001
                                    CHANNELS 3 Zrotation Xrotation Yrotation
                                    JOINT RightHandMiddle3
                                    {
                                        OFFSET -2.710631 0.000002 -0.000002
                                        CHANNELS 3 Zrotation Xrotation Yrotation
                                        End Site
                                        {
                                            OFFSET -2.578118 0.000000 0.000000
                                        }
                                    }
                                }
                            }
                            JOINT RightHandRing1
                            {
                                OFFSET -7.680209 -0.000005 -1.048118
                                CHANNELS 3 Zrotation Xrotation Yrotation
                                JOINT RightHandRing2
                                {
                                    OFFSET -4.517749 0.000000 0.000001
                                    CHANNELS 3 Zrotation Xrotation Yrotation
                                    JOINT RightHandRing3
                                    {
                                        OFFSET -2.258898 -0.000002 0.000003
                                        CHANNELS 3 Zrotation Xrotation Yrotation
                                        End Site
                                        {
                                            OFFSET -2.148437 0.000000 0.000000
                                        }
                                    }
                                }
                            }
                            JOINT RightHandPinky1
                            {
                                OFFSET -7.228427 0.000000 -3.162426
                                CHANNELS 3 Zrotation Xrotation Yrotation
                                JOINT RightHandPinky2
                                {
                                    OFFSET -3.614190 0.000001 0.000000
                                    CHANNELS 3 Zrotation Xrotation Yrotation
                                    JOINT RightHandPinky3
                                    {
                                        OFFSET -1.807119 -0.000002 0.000002
                                        CHANNELS 3 Zrotation Xrotation Yrotation
                                        End Site
                                        {
                                            OFFSET -1.718745 0.000000 0.000000
                                        }
                                    }
                                }
                            }
                        }
                    }
                }
            }
        }
    }
    JOINT LeftUpLeg
    {
        OFFSET 9.511070 0.000004 -0.000021
        CHANNELS 3 Zrotation Xrotation Yrotation
        JOINT LeftLeg
        {
            OFFSET 0.000002 -43.875633 -0.000018
            CHANNELS 3 Zrotation Xrotation Yrotation
            JOINT LeftFoot
            {
                OFFSET 0.000001 -35.354156 -0.000004
                CHANNELS 3 Zrotation Xrotation Yrotation
                JOINT LeftToeBase
                {
                    OFFSET 0.000005 -6.182192 14.266581
                    CHANNELS 3 Zrotation Xrotation Yrotation
                    End Site
                    {
                        OFFSET 0.000000 0.000000 3.804428
                    }
                }
            }
        }
    }
    JOINT RightUpLeg
    {
        OFFSET -9.511070 -0.000004 0.000021
        CHANNELS 3 Zrotation Xrotation Yrotation
        JOINT RightLeg
        {
            OFFSET 0.000000 -43.875645 0.000015
            CHANNELS 3 Zrotation Xrotation Yrotation
            JOINT RightFoot
            {
                OFFSET -0.000001 -35.354156 -0.000004
                CHANNELS 3 Zrotation Xrotation Yrotation
                JOINT RightToeBase
                {
                    OFFSET 0.000001 -6.182192 14.266604
                    CHANNELS 3 Zrotation Xrotation Yrotation
                    End Site
                    {
                        OFFSET 0.000000 0.000000 3.804428
                    }
                }
            }
        }
    }
}
MOTION
Frames:    4
Frame Time:    0.002778
18.091518    90.191528    601.293213    0.219099    -5.783059    -157.978897    -0.298081    5.909680    0.750415    -1.490399    5.907775    0.873162    5.295353    9.864105    -19.583174    5.295352    9.864100    -19.583172    2.164541    -2.731684    -0.198912    -60.999062    8.625655    -17.787045    -57.168797    20.592337    -88.753998    -0.149833    -0.622985    10.029644    47.448219    38.866432    -34.355022    -35.000000    -0.000003    -0.000001    -0.000000    0.000000    -0.000000    0.000003    9.999991    -0.000000    -0.000000    0.000000    -0.000000    -0.000000    0.000000    -0.000000    -0.000000    0.000000    -0.000000    -0.000000    0.000000    -0.000000    -0.000000    0.000000    -0.000000    -0.000000    0.000000    -0.000000    -0.000000    0.000000    -0.000000    -0.000000    0.000000    -0.000000    0.000001    -9.999998    -0.000003    -0.000000    0.000000    -0.000000    -0.000000    0.000000    -0.000000    -7.322824    -0.878646    1.477456    45.278667    -0.296944    29.062584    15.977192    17.166561    62.198524    -53.343857    8.994233    -6.721521    -47.448219    38.866428    34.355042    35.000000    -0.000000    -0.000006    -0.000000    0.000000    -0.000000    0.000000    10.000002    -0.000003    -0.000000    0.000000    -0.000000    -0.000000    0.000000    -0.000000    -0.000000    0.000000    -0.000000    -0.000000    0.000000    -0.000000    -0.000000    0.000000    -0.000000    -0.000000    0.000000    -0.000000    -0.000000    0.000000    -0.000000    -0.000000    0.000000    -0.000000    0.000003    -9.999995    -0.000001    -0.000000    0.000000    -0.000000    -0.000000    0.000000    -0.000000    15.398373    -18.965700    -1.047186    0.000000    22.500761    -0.000001    -15.360773    -9.650101    2.536730    -0.000000    -0.591645    -0.000002    -13.333183    -26.807001    -3.816741    0.000000    46.524593    0.000002    12.584012    -19.326315    -19.412930    -0.000000    -3.420378    -0.000000    
18.088753    90.193680    601.278015    0.216174    -5.749905    -157.949036    -0.298378    5.885792    0.782899    -1.491884    5.883887    0.905272    5.298104    9.813791    -19.615923    5.298104    9.813783    -19.615927    2.162699    -2.733011    -0.207597    -60.997654    8.650088    -17.800724    -57.147678    20.604620    -88.766876    -0.128662    -0.618933    9.996647    47.448219    38.866432    -34.355038    -35.000008    0.000001    -0.000003    -0.000000    0.000000    -0.000000    0.000011    10.000004    -0.000004    -0.000000    0.000000    -0.000000    -0.000000    0.000000    -0.000000    -0.000000    0.000000    -0.000000    -0.000000    0.000000    -0.000000    -0.000000    0.000000    -0.000000    -0.000000    0.000000    -0.000000    -0.000000    0.000000    -0.000000    -0.000000    0.000000    -0.000000    0.000003    -9.999996    -0.000010    -0.000000    0.000000    -0.000000    -0.000000    0.000000    -0.000000    -7.358408    -0.885759    1.441696    45.393425    -0.621084    29.439604    16.145653    16.647718    61.504002    -53.316612    8.836604    -6.614955    -47.448208    38.866428    34.355038    35.000004    -0.000001    0.000000    -0.000000    0.000000    -0.000000    0.000003    10.000003    0.000004    -0.000000    0.000000    -0.000000    -0.000000    0.000000    -0.000000    -0.000000    0.000000    -0.000000    -0.000000    0.000000    -0.000000    -0.000000    0.000000    -0.000000    -0.000000    0.000000    -0.000000    -0.000000    0.000000    -0.000000    -0.000000    0.000000    -0.000000    -0.000002    -10.000000    -0.000001    -0.000000    0.000000    -0.000000    -0.000000    0.000000    -0.000000    15.401751    -18.935221    -1.055579    0.000002    22.500467    -0.000002    -15.354959    -9.650020    2.507439    0.000000    -0.594272    0.000000    -13.322484    -26.755388    -3.813593    0.000000    46.523193    -0.000001    12.590793    -19.335369    -19.433893    0.000000    -3.421215    -0.000000    
18.086082    90.194633    601.262878    0.212724    -5.717329    -157.917969    -0.298384    5.861575    0.817268    -1.491918    5.859680    0.939148    5.297113    9.763059    -19.649620    5.297113    9.763060    -19.649622    2.161224    -2.737552    -0.224776    -60.997654    8.685046    -17.816849    -57.179794    20.615585    -88.778145    -0.072080    -0.609257    9.982921    47.448200    38.866444    -34.355019    -34.999996    -0.000005    0.000000    -0.000000    0.000000    -0.000000    -0.000004    9.999997    0.000004    -0.000000    0.000000    -0.000000    -0.000000    0.000000    -0.000000    -0.000000    0.000000    -0.000000    -0.000000    0.000000    -0.000000    -0.000000    0.000000    -0.000000    -0.000000    0.000000    -0.000000    -0.000000    0.000000    -0.000000    -0.000000    0.000000    -0.000000    -0.000005    -10.000002    -0.000000    -0.000000    0.000000    -0.000000    -0.000000    0.000000    -0.000000    -7.391496    -0.926740    1.416262    45.510284    -0.940245    29.846968    16.487314    16.103321    60.723038    -53.453510    8.638711    -6.442676    -47.448208    38.866413    34.355038    35.000004    -0.000002    -0.000010    -0.000000    0.000000    -0.000000    -0.000000    9.999999    0.000003    -0.000000    0.000000    -0.000000    -0.000000    0.000000    -0.000000    -0.000000    0.000000    -0.000000    -0.000000    0.000000    -0.000000    -0.000000    0.000000    -0.000000    -0.000000    0.000000    -0.000000    -0.000000    0.000000    -0.000000    -0.000000    0.000000    -0.000000    0.000006    -9.999993    0.000008    -0.000000    0.000000    -0.000000    -0.000000    0.000000    -0.000000    15.404343    -18.906277    -1.064883    0.000000    22.498199    -0.000000    -15.346061    -9.642710    2.481506    0.000000    -0.592901    -0.000001    -13.313005    -26.703190    -3.811320    0.000001    46.523632    -0.000003    12.601363    -19.352104    -19.451626    -0.000000    -3.422649    0.000001    
18.082758    90.196457    601.248718    0.208306    -5.685534    -157.888260    -0.298720    5.838602    0.846666    -1.493598    5.836712    0.968204    5.296438    9.708857    -19.691593    5.296440    9.708858    -19.691595    2.163839    -2.735472    -0.231464    -60.999031    8.710134    -17.829121    -57.228218    20.621088    -88.792458    -0.012478    -0.599295    9.995849    47.448219    38.866428    -34.355053    -35.000008    -0.000001    -0.000008    -0.000000    0.000000    -0.000000    0.000003    10.000001    -0.000000    -0.000000    0.000000    -0.000000    -0.000000    0.000000    -0.000000    -0.000000    0.000000    -0.000000    -0.000000    0.000000    -0.000000    -0.000000    0.000000    -0.000000    -0.000000    0.000000    -0.000000    -0.000000    0.000000    -0.000000    -0.000000    0.000000    -0.000000    -0.000003    -10.000002    -0.000000    -0.000000    0.000000    -0.000000    -0.000000    0.000000    -0.000000    -7.434078    -0.956830    1.372350    45.627136    -1.258996    30.269684    16.964472    15.514204    59.939220    -53.686741    8.427358    -6.242357    -47.448219    38.866428    34.355042    34.999989    -0.000003    0.000007    -0.000000    0.000000    -0.000000    -0.000001    9.999998    0.000006    -0.000000    0.000000    -0.000000    -0.000000    0.000000    -0.000000    -0.000000    0.000000    -0.000000    -0.000000    0.000000    -0.000000    -0.000000    0.000000    -0.000000    -0.000000    0.000000    -0.000000    -0.000000    0.000000    -0.000000    -0.000000    0.000000    -0.000000    0.000003    -10.000001    0.000010    -0.000000    0.000000    -0.000000    -0.000000    0.000000    -0.000000    15.405541    -18.876734    -1.074417    0.000000    22.498804    -0.000001    -15.345490    -9.643947    2.451470    -0.000000    -0.589698    -0.000003    -13.304986    -26.651981    -3.806451    -0.000001    46.523346    -0.000002    12.617651    -19.365265    -19.466429    -0.000000    -3.424172    -0.000000    
